<svg xmlns="http://www.w3.org/2000/svg" width="39.108" height="39.998" fill="none" viewBox="0 0 39.108 39.998"><path fill="#070707" d="M11.35 0C5.1 0 0 5.22 0 11.62V28.4c0 6.38 5.1 11.59 11.35 11.59h16.42c6.24 0 11.33-5.22 11.33-11.61V11.61C39.1 5.21 34.01 0 27.76 0zm0 3.08h16.41c4.62 0 8.33 3.8 8.33 8.54v16.77c0 4.74-3.71 8.54-8.32 8.54H11.35c-4.63 0-8.35-3.8-8.35-8.52V11.63c.01-4.75 3.73-8.55 8.35-8.55m20.24 3.08c-.83 0-1.5.68-1.5 1.53 0 .86.67 1.54 1.5 1.54.84 0 1.51-.68 1.51-1.54 0-.85-.67-1.53-1.51-1.53M19.56 9.23C13.77 9.23 9.03 14.08 9.03 20s4.74 10.77 10.53 10.77S30.09 25.92 30.09 20 25.35 9.23 19.56 9.23m0 3.08c4.17 0 7.52 3.42 7.52 7.69s-3.35 7.69-7.52 7.69c-4.18 0-7.52-3.42-7.52-7.69s3.34-7.69 7.52-7.69"/><path fill="#070707" fill-rule="evenodd" d="M11.35 0C5.1 0 0 5.22 0 11.62V28.4c0 6.38 5.1 11.59 11.35 11.59h16.42c6.24 0 11.33-5.22 11.33-11.61V11.61C39.1 5.21 34.01 0 27.76 0zm1 1h-1q-2 0-3.73.69-1.96.77-3.58 2.42-1.49 1.53-2.25 3.36Q1 9.38 1 11.62V28.4q0 2.23.79 4.13.76 1.83 2.25 3.36 1.61 1.64 3.56 2.41 1.74.69 3.75.69h16.42q1.99 0 3.72-.68 1.96-.77 3.57-2.42 1.48-1.52 2.24-3.35.8-1.91.8-4.16V11.61q0-2.25-.8-4.17-.76-1.82-2.24-3.34-1.61-1.64-3.56-2.42Q29.76 1 27.76 1zm18.97 1.76q-1.64-.68-3.56-.68H11.35q-1.92 0-3.56.68-1.68.7-3.06 2.11-1.26 1.3-1.94 2.85Q2.01 9.5 2 11.63v16.78q0 2.08.76 3.84.68 1.57 1.96 2.89 1.38 1.4 3.05 2.1 1.65.69 3.58.69h16.42q1.91 0 3.54-.68 1.68-.7 3.07-2.12 1.27-1.3 1.95-2.87.76-1.77.76-3.87V11.62q0-2.11-.76-3.88-.68-1.56-1.95-2.87Q33 3.46 31.32 2.76m-19.97.32h16.41c4.62 0 8.33 3.8 8.33 8.54v16.77c0 4.74-3.71 8.54-8.32 8.54H11.35c-4.63 0-8.35-3.8-8.35-8.52V11.63c.01-4.75 3.73-8.55 8.35-8.55m20.24 3.08c-.83 0-1.5.68-1.5 1.53 0 .86.67 1.54 1.5 1.54.84 0 1.51-.68 1.51-1.54 0-.85-.67-1.53-1.51-1.53m-.36 1.96q-.14-.14-.14-.43 0-.28.14-.42.13-.11.36-.11.24 0 .36.11.15.14.15.42 0 .29-.15.43-.12.11-.36.11-.23 0-.36-.11M19.56 9.23C13.77 9.23 9.03 14.08 9.03 20s4.74 10.77 10.53 10.77S30.09 25.92 30.09 20 25.35 9.23 19.56 9.23m-8.81 14.56q-.72-1.74-.72-3.79t.72-3.8q.7-1.69 2.09-3.11 1.49-1.52 3.3-2.23 1.59-.63 3.42-.63t3.41.63q1.82.71 3.31 2.23 1.38 1.42 2.08 3.11.73 1.75.73 3.8t-.73 3.79q-.7 1.7-2.08 3.11-1.49 1.53-3.31 2.24-1.58.63-3.41.63t-3.42-.63q-1.81-.71-3.3-2.24-1.39-1.41-2.09-3.11m16.63-.27q.7-1.61.7-3.52t-.7-3.53q-.62-1.42-1.78-2.62-1.26-1.28-2.78-1.92-1.5-.62-3.26-.62t-3.26.62q-1.53.64-2.78 1.92-1.17 1.2-1.79 2.62-.69 1.62-.69 3.53t.69 3.52q.62 1.43 1.79 2.62 1.25 1.29 2.78 1.92 1.5.63 3.26.63t3.26-.63q1.52-.63 2.78-1.92 1.16-1.19 1.78-2.62m-7.82-11.21c4.17 0 7.52 3.42 7.52 7.69s-3.35 7.69-7.52 7.69c-4.18 0-7.52-3.42-7.52-7.69s3.34-7.69 7.52-7.69"/></svg>