<svg xmlns="http://www.w3.org/2000/svg" width="68" height="68" fill="none" viewBox="0 0 68 68"><defs><clipPath id="a"><rect width="67" height="67" fill="#fff" fill-opacity="0" rx="-.5" transform="translate(.5 .5)"/></clipPath></defs><rect width="67" height="67" rx="-.5" transform="translate(.5 .5)"/><g clip-path="url(#a)"><path fill="#FFD645" fill-rule="evenodd" d="m30.5 24-9.1 12h18.19z"/><path fill="#FFD645" fill-rule="evenodd" d="M42 17 29 36.5h25.99z"/><path fill="#000" d="M66 47.94H1.99c-1.1 0-1.99.89-1.99 1.99V66c0 1.1.89 2 1.99 2H66c1.1 0 2-.9 2-2V49.93c0-1.1-.9-1.99-2-1.99m-1.99 16.07h-4.12V57.9c0-1.1-.89-1.99-1.99-1.99s-1.99.89-1.99 1.99v6.11h-3.99v-2.12c0-1.1-.89-2-1.99-2s-1.99.9-1.99 2v2.12h-3.98V57.9c0-1.1-.9-1.99-2-1.99s-1.99.89-1.99 1.99v6.11h-3.98v-2.12c0-1.1-.89-2-1.99-2a2 2 0 0 0-2 2v2.12h-3.98V57.9c0-1.1-.89-1.99-1.99-1.99s-2 .89-2 1.99v6.11h-3.98v-2.12c0-1.1-.89-2-1.99-2s-1.99.9-1.99 2v2.12h-3.99V57.9c0-1.1-.89-1.99-1.99-1.99S8.1 56.8 8.1 57.9v6.11H3.98V51.92h60.03zM66 12.08c1.1 0 2-.89 2-1.99v-8.1C68 .89 67.1 0 66 0h-8.1c-1.1 0-1.99.89-1.99 1.99v1.99H12.08V1.99c0-1.1-.89-1.99-1.99-1.99h-8.1C.89 0 0 .89 0 1.99v8.1c0 1.1.89 1.99 1.99 1.99h1.99V32H1.99C.89 32 0 32.89 0 34v7.96c0 1.1.89 2 1.99 2h8.1c1.1 0 1.99-.9 1.99-2v-1.99h43.83v1.99c0 1.1.89 2 1.99 2H66c1.1 0 2-.9 2-2V34a2 2 0 0 0-2-2h-1.99V12.08zM3.98 3.98H8.1V8.1H3.98zM8.1 39.97H3.98v-3.98H8.1zm13.94-3.98 7.97-10.63 7.97 10.63zm20.92 0-6.99-9.33 5.99-9 12.22 18.33zm13.66-3.52-13-19.5a1.985 1.985 0 0 0-3.31 0l-6.88 10.31-1.83-2.43c-.79-1.07-2.39-1.06-3.18 0L17.06 35.99h-4.98V34c0-1.11-.89-2-1.99-2H7.96V12.08h2.13c1.1 0 1.99-.89 1.99-1.99V7.96h43.83v2.13c0 1.1.89 1.99 1.99 1.99h2.13V32H57.9c-.49 0-.93.18-1.28.47m7.39 7.5h-4.12v-3.98h4.12zM59.89 8.1V3.98h4.12V8.1z"/><path fill="#000" d="M18.06 12.08c-3.3 0-5.98 2.68-5.98 5.98 0 3.29 2.68 5.97 5.98 5.97a5.98 5.98 0 0 0 5.97-5.97c0-3.3-2.68-5.98-5.97-5.98m0 7.97c-1.1 0-1.99-.89-1.99-1.99s.89-1.99 1.99-1.99 1.99.89 1.99 1.99-.89 1.99-1.99 1.99"/></g></svg>