<svg xmlns="http://www.w3.org/2000/svg" width="39.108" height="39.998" fill="none" viewBox="0 0 39.108 39.998"><path fill="#070707" d="M19.55 0C8.78 0 0 8.98 0 19.99c0 11.02 8.78 20 19.55 20s19.55-8.98 19.55-20C39.1 8.98 30.32 0 19.55 0m0 3.07c3.93 0 7.52 1.4 10.35 3.73-1.44 1.81-4.08 4.32-8.51 5.96-2.4-4.45-4.42-7.29-5.82-9.18 1.27-.32 2.61-.51 3.98-.51m-6.96 1.59c1.18 1.55 3.3 4.46 5.83 9.02-6.5 1.74-12.36 1.85-14.81 1.78 1.31-4.81 4.62-8.74 8.98-10.8m19.47 4.28a17.1 17.1 0 0 1 4.03 11.05c0 .64-.03 1.25-.1 1.87-.54-.08-.95-.14-1.64-.2a38.5 38.5 0 0 0-8.76.32c-.87-2.31-1.83-4.46-2.82-6.47 4.65-1.81 7.59-4.5 9.29-6.57m-12.21 7.53c.95 1.9 1.87 3.94 2.73 6.13-3.96 1.2-7.56 3.94-10.33 6.49a54 54 0 0 0-3.59 3.64C5.19 29.63 2.99 25.09 2.99 20c0-.51.04-.99.08-1.48 2.14.09 9 .16 16.78-2.05m9.96 8.17c2.31-.09 4.13.08 5.58.24a16.8 16.8 0 0 1-6.52 9.11c-.5-3.16-1.27-6.2-2.2-9.06 1.08-.15 2.14-.24 3.14-.29m-6.15.84c1.07 3.17 1.92 6.54 2.39 10.08-2 .87-4.19 1.36-6.51 1.36-3.09 0-5.96-.88-8.43-2.37.83-.91 1.87-2.02 3.15-3.18 2.66-2.44 6.13-4.93 9.4-5.89"/><path fill="#070707" fill-rule="evenodd" d="M19.55 0C8.78 0 0 8.98 0 19.99c0 11.02 8.78 20 19.55 20s19.55-8.98 19.55-20C39.1 8.98 30.32 0 19.55 0M2.43 27.45Q1 24.02 1 19.99t1.43-7.46q1.36-3.25 4.02-5.97 2.87-2.93 6.35-4.32Q15.93 1 19.55 1t6.75 1.24q3.48 1.39 6.35 4.32 2.66 2.72 4.02 5.97 1.43 3.43 1.43 7.46t-1.43 7.46q-1.36 3.26-4.02 5.98-2.87 2.93-6.35 4.32-3.13 1.24-6.75 1.24t-6.75-1.24q-3.48-1.39-6.35-4.32-2.66-2.72-4.02-5.98m27.3-18.92q.5-.53.95-1.11l.61-.76-.75-.63q-2.45-2.02-5.25-3.01-2.7-.95-5.74-.95-2.06 0-4.22.54l-1.45.36.89 1.21q3.09 4.16 5.74 9.06l.42.76.81-.3q4.84-1.8 7.99-5.17m-.62-2.34a16.13 16.13 0 0 0-9.56-3.12c-.99 0-1.97.1-2.91.28-.36.06-.72.14-1.07.23.2.27.42.56.64.88 1.35 1.86 3.12 4.49 5.18 8.3 3.83-1.42 6.33-3.49 7.86-5.19.1-.11.19-.22.28-.32.13-.15.25-.3.37-.45-.15-.13-.31-.25-.47-.37-.11-.08-.21-.16-.32-.24M3.58 16.46q7.46.23 15.1-1.82l1.24-.33-.62-1.12q-2.8-5.04-5.91-9.14l-.49-.64-.73.34Q8.67 5.4 6.34 8.08q-2.56 2.94-3.69 7.11l-.33 1.23zm14.33-3.68c-2.3-4.05-4.22-6.68-5.32-8.12-4.06 1.91-7.2 5.45-8.67 9.8-.11.33-.21.66-.31 1 .3.01.65.01 1.04.01 2.67.01 7.46-.23 12.77-1.54.33-.08.67-.16 1-.25q-.255-.465-.51-.9m19.08 9.19q.1-1.02.1-1.98 0-3.32-1.07-6.25-1.06-2.92-3.19-5.45l-.78-.92-.76.93q-.41.5-.85.97-3.2 3.42-8.03 5.31l-1.01.4.48.97q1.61 3.29 2.78 6.39l.28.76.8-.13q3.19-.48 6.37-.42 1.08.02 2.15.1.55.05 1.32.16.18.03.27.04l1.03.14zM35 21.72c-.19-.02-.41-.04-.65-.06a38.5 38.5 0 0 0-8.76.32c-.74-1.97-1.55-3.82-2.38-5.56-.14-.31-.29-.61-.44-.91a20 20 0 0 0 .93-.38c3.59-1.57 6.07-3.64 7.7-5.43.24-.26.46-.52.66-.76.22.26.43.52.64.8 2.12 2.85 3.39 6.39 3.39 10.25 0 .3 0 .58-.02.87-.02.34-.04.67-.08 1-.35-.05-.64-.1-.99-.14m-22.07 8.11q5.26-4.85 9.94-6.27l1.03-.32-.39-1q-1.22-3.12-2.77-6.22l-.37-.74-.79.22q-8.05 2.29-16.01 2.04l-.46-.02-.96-.04-.08.97v.02q-.08.99-.08 1.53 0 4.12 1.56 7.54 1.5 3.3 4.45 5.94l.74.67.67-.75q1.75-1.96 3.52-3.57m9.27-8.16c.13.31.25.62.38.93-.32.1-.64.2-.95.32-3.59 1.32-6.83 3.83-9.38 6.17a52 52 0 0 0-3.53 3.58l-.06.06q-.375-.33-.72-.69A17 17 0 0 1 2.99 20c0-.51.04-.99.08-1.48 2.14.09 9 .16 16.78-2.05.81 1.63 1.61 3.36 2.35 5.2m11.44 9.07q1.81-2.46 2.71-5.58l.33-1.14-1.18-.14q-3.06-.34-5.74-.24-1.58.08-3.23.3l-1.19.15.37 1.15q1.48 4.53 2.17 8.91l.25 1.58 1.31-.92q2.5-1.74 4.2-4.07m-11.05 6.91q1.97-.36 3.86-1.17l.7-.3-.1-.75q-.69-5.1-2.45-10.27l-.3-.9-.92.26q-4.61 1.34-9.8 6.11-1.44 1.31-3.21 3.25l-.83.9 1.05.63q2.3 1.38 4.79 2 2.02.51 4.16.51 1.55 0 3.05-.27m11.79-12.88c-1.26-.11-2.77-.2-4.57-.13-.69.03-1.4.09-2.13.16-.34.04-.67.08-1.01.13l.3.96c.69 2.25 1.28 4.59 1.71 7.01.07.36.13.73.19 1.09.3-.21.61-.44.9-.67a16.86 16.86 0 0 0 5.31-7.47c.11-.32.21-.64.31-.97-.32-.04-.66-.07-1.01-.11M11.8 33.8c.7-.74 1.51-1.57 2.46-2.43 2.66-2.44 6.13-4.93 9.4-5.89 1.07 3.17 1.92 6.54 2.39 10.08-2 .87-4.19 1.36-6.51 1.36-2.73 0-5.28-.68-7.54-1.87-.3-.15-.6-.32-.89-.5.21-.24.45-.49.69-.75"/></svg>