<svg xmlns="http://www.w3.org/2000/svg" width="40.667" height="40.559" fill="none" viewBox="0 0 40.667 40.559"><path fill="#070707" d="M34.53.25H6.13C2.88.25.25 2.88.25 6.11v28.33c0 3.23 2.63 5.86 5.88 5.86h28.4c3.24 0 5.88-2.63 5.88-5.86V6.11c0-3.23-2.64-5.86-5.88-5.86m3.53 34.19c0 1.94-1.59 3.52-3.53 3.52H6.13c-1.95 0-3.53-1.58-3.53-3.52V6.11c0-1.94 1.58-3.52 3.53-3.52h28.4c1.94 0 3.53 1.58 3.53 3.52z"/><path stroke="#070707" stroke-width=".5" d="M6.13.25C2.88.25.25 2.88.25 6.11v28.33c0 3.23 2.63 5.86 5.88 5.86h28.4c3.24 0 5.88-2.63 5.88-5.86V6.11c0-3.23-2.64-5.86-5.88-5.86zm28.4 37.71H6.13c-1.95 0-3.53-1.58-3.53-3.52V6.11c0-1.94 1.58-3.52 3.53-3.52h28.4c1.94 0 3.53 1.58 3.53 3.52v28.33c0 1.94-1.59 3.52-3.53 3.52Z"/><path fill="#070707" d="M31.37 29.28h-4.31v-7.2c0-.5-.04-.99-.16-1.47-.52-2-2.74-1.88-3.63-.94-.44.48-.73 1.02-.74 1.68-.01.16-.02.32-.02.48v7.45h-4.3V15.91h4.3v1.8c.01 0 .02.01.03.01.04-.04.07-.08.1-.12.43-.6.92-1.13 1.58-1.49.74-.4 1.53-.54 2.36-.51.89.02 1.74.22 2.51.71.98.61 1.58 1.52 1.93 2.6.27.85.36 1.72.36 2.6v7.61c0 .05 0 .1-.01.16"/><path fill="#070707" fill-rule="evenodd" d="M22.51 17.71v-1.8h-4.3v13.37h4.3v-7.45c0-.16.01-.32.02-.48.01-.66.3-1.2.74-1.68.89-.94 3.11-1.06 3.63.94.12.48.16.97.16 1.47v7.2h4.31c.01-.06.01-.11.01-.16v-7.61c0-.88-.09-1.75-.36-2.6-.35-1.08-.95-1.99-1.93-2.6-.77-.49-1.62-.69-2.51-.71-.83-.03-1.62.11-2.36.51-.66.36-1.15.89-1.58 1.49-.03.04-.06.08-.1.12-.01 0-.02-.01-.03-.01m8.83 11.54q0-.01.01-.02v-7.72q0-1.48-.36-2.59-.43-1.33-1.33-2.15-.28-.24-.59-.44-1.06-.66-2.49-.7-1.34-.04-2.34.51-.46.25-.87.65-.36.34-.71.83-.02.02-.05.07-.03.03-.04.05l-.01.02-.03-.01-.02-.01h-.01l-.02-.01v-1.78h-4.24v13.3h4.24v-7.42q0-.1.01-.28v-.2q.01-.24.06-.46.05-.24.16-.46.18-.4.54-.78.34-.36.88-.54.37-.12.73-.13.19 0 .37.02.41.06.75.26.15.09.28.2.05.04.1.09.4.4.57 1.05.16.63.16 1.48v7.17z"/><path fill="#070707" d="M15.58 29.29H11.3V15.91h4.28z"/><path fill="#070707" fill-rule="evenodd" d="M11.3 29.29h4.28V15.91H11.3zm.03-13.35v13.32h4.22V15.94z"/><path fill="#070707" d="M13.62 9.26c1.35 0 2.3.96 2.31 2.32 0 1.34-.97 2.3-2.34 2.3-1.34 0-2.3-.96-2.3-2.31s.97-2.31 2.33-2.31"/><path fill="#070707" fill-rule="evenodd" d="M13.62 9.26c1.35 0 2.3.96 2.31 2.32 0 1.34-.97 2.3-2.34 2.3-1.34 0-2.3-.96-2.3-2.31s.97-2.31 2.33-2.31m2.11 1.39q.17.43.17.93 0 .49-.17.91-.1.26-.26.48-.1.13-.22.24-.08.09-.18.16-.24.19-.55.31-.43.17-.93.17-.49 0-.91-.17-.27-.11-.49-.27-.12-.09-.23-.2-.1-.1-.18-.21-.18-.23-.29-.51-.17-.43-.17-.92t.17-.91v-.01q.11-.26.27-.48.09-.13.21-.24.09-.09.2-.18.24-.18.52-.29.43-.17.93-.17t.92.17q.27.1.49.27.12.09.23.2.09.09.17.19.18.24.3.53"/></svg>