<svg xmlns="http://www.w3.org/2000/svg" width="68" height="68" fill="none" viewBox="0 0 68 68"><defs><clipPath id="a"><rect width="67" height="67" fill="#fff" fill-opacity="0" rx="-.5" transform="translate(.5 .5)"/></clipPath></defs><rect width="67" height="67" rx="-.5" transform="translate(.5 .5)"/><g clip-path="url(#a)"><path stroke="#000" d="m24.5 22.5-6.5 4v9l1.5 1.5 5-3"/><path fill="#FFD645" d="m24 22.5.5 11.5-2 1-4.5 2.5-.5-2.5.5-8.5z"/><path stroke="#000" d="m24 22.5-6 4-.5 8.5.5 2.5 4.5-2.5 2-1z"/><path fill="#FFD645" d="m26 31.5 1.5-19 6-10.5L37 4l7 17.5 5 6V38l-5-3h-5.5L42 45H26l3-10z"/><path stroke="#000" d="m26 31.5 3 3.5-3 10h16l-3.5-10H44l5 3V27.5l-5-6L37 4l-3.5-2-6 10.5z"/><path fill="#000" d="M62.02 7.96H40.97c-.07 0-.13.01-.19.01A28.9 28.9 0 0 0 35.4.58a1.98 1.98 0 0 0-2.81 0 28.9 28.9 0 0 0-5.38 7.39c-.06 0-.12-.01-.19-.01H5.97C2.68 7.96 0 10.65 0 13.94V49.8c0 3.3 2.68 5.98 5.97 5.98h17.31l-2.68 8.23h-2.54c-1.1 0-1.99.89-1.99 1.99s.89 2 1.99 2h31.87c1.1 0 1.99-.9 1.99-2s-.89-1.99-1.99-1.99h-2.54l-2.68-8.23h17.31c3.29 0 5.98-2.68 5.98-5.98V13.94c0-3.29-2.69-5.98-5.98-5.98M34 4.92c1.61 1.9 2.91 4 3.89 6.24a9.98 9.98 0 0 1-7.79 0c.98-2.24 2.28-4.34 3.9-6.24m-5.98 16.99c0-2.19.09-4.25.79-6.98 1.64.66 3.39 1 5.19 1 1.79 0 3.54-.34 5.18-1 .69 2.7.79 4.76.79 6.98v9.96H28.02zM39.2 43.82H28.79l2.66-7.97h5.09zM3.98 13.94c0-1.1.89-1.99 1.99-1.99h19.58c-.89 2.64-1.39 5.37-1.49 8.16-4.56.92-7.99 4.95-7.99 9.77v7.97c0 .69.35 1.33.94 1.69.59.37 1.32.4 1.94.09l7.55-3.78h.75l-2.66 7.97H3.98zm20.05 10.3v8.39l-3.98 1.99v-4.74c0-2.6 1.67-4.81 3.98-5.64m.76 39.77 2.68-8.23h13.05l2.68 8.23zM64.01 49.8c0 1.1-.89 1.99-1.99 1.99H5.97c-1.1 0-1.99-.89-1.99-1.99v-1.99h60.03zm0-5.98H43.4l-2.66-7.97h.75l7.55 3.78c.62.31 1.35.28 1.94-.09.59-.36.94-1 .94-1.69v-7.97c0-4.82-3.43-8.85-7.99-9.77-.1-2.79-.6-5.52-1.49-8.16h19.58c1.1 0 1.99.89 1.99 1.99zM43.96 32.63v-8.39c2.32.83 3.98 3.04 3.98 5.64v4.74z"/><path fill="#000" fill-rule="evenodd" d="M35.99 21.91c0 1.1-.89 1.99-1.99 1.99a1.99 1.99 0 1 1 0-3.98c1.1 0 1.99.89 1.99 1.99"/></g></svg>