<svg xmlns="http://www.w3.org/2000/svg" width="115" height="35" fill="none" viewBox="0 0 115 35"><path fill="#000" fill-rule="evenodd" d="M73.87 6.44c.61.56 1.39.84 2.35.84q1.02 0 1.78-.44.29-.17.54-.4c.61-.57.91-1.27.91-2.1q0-.7-.27-1.27-.23-.47-.64-.86c-.61-.56-1.39-.85-2.32-.85-.96 0-1.74.29-2.35.85-.61.57-.92 1.27-.92 2.13 0 .83.31 1.53.92 2.1M49.46 27V3.32H44V27zM7.45 17.07 15 27h6.69l-9.02-11.46 8.7-11.01h-6.43l-7.49 9.86V4.53H1.98V27h5.47zm33.57 2.31c.06-.55.09-1.09.09-1.6 0-1.8-.38-3.36-1.13-4.71a7.9 7.9 0 0 0-3.15-3.1l-.04-.02q-2-1.06-4.57-1.06-2.65 0-4.7 1.11-.9.49-1.63 1.17-.92.87-1.56 2.04-1.13 2.07-1.13 4.86 0 2.78 1.15 4.86c.77 1.39 1.83 2.46 3.2 3.21q.08.04.17.09 1.98 1.02 4.5 1.02 2.17 0 3.93-.79a8.2 8.2 0 0 0 2.93-2.21q.62-.75 1.03-1.59.38-.75.59-1.59h-5.82c-.54 1.15-1.49 1.73-2.85 1.73q-.86 0-1.55-.34-.42-.2-.77-.54c-.63-.58-.99-1.43-1.08-2.54zm57.77-8.4c-1.24-1.35-2.91-2.03-5-2.03-1.18 0-2.23.23-3.17.69-.94.45-1.69 1.08-2.24 1.87V9.14h-5.47V27h5.47v-9.7c0-1.19.31-2.12.93-2.78s1.45-.99 2.5-.99q1.56 0 2.49.99c.62.66.93 1.59.93 2.78V27h5.44V16.57q0-3.3-1.62-5.29-.12-.15-.26-.3M65.34 9.14l-3.87 12.74-3.88-12.74h-5.85L58.08 27h6.75l6.33-17.86zM78.94 27V9.14h-5.47V27zM35.12 14.76q.4.67.4 1.58h-6.85c.15-.98.54-1.74 1.16-2.27.63-.53 1.41-.8 2.33-.8.96 0 1.76.28 2.4.83q.34.3.56.66"/><circle cx="111" cy="31" r="4" fill="#FDA300"/></svg>