<svg xmlns="http://www.w3.org/2000/svg" width="68" height="68" fill="none" viewBox="0 0 68 68"><defs><clipPath id="a"><rect width="67" height="67" fill="#fff" fill-opacity="0" rx="-.5" transform="translate(.5 .5)"/></clipPath></defs><rect width="67" height="67" rx="-.5" transform="translate(.5 .5)"/><g clip-path="url(#a)"><path fill="#FFD645" d="M46 27h12v30H46zM11 43h27v14H11zm0-16h27v6H11z"/><path fill="#000" d="M62.02 0H5.97A5.98 5.98 0 0 0 0 5.97v56.05C0 65.31 2.68 68 5.97 68h56.05c3.29 0 5.98-2.69 5.98-5.98V5.97C68 2.68 65.31 0 62.02 0M3.98 5.97c0-1.1.89-1.99 1.99-1.99h9.96v11.95H3.98zm60.03 56.05c0 1.1-.89 1.99-1.99 1.99H5.97c-1.1 0-1.99-.89-1.99-1.99v-42.1h60.03zm0-46.09H19.92V3.98h42.1c1.1 0 1.99.89 1.99 1.99z"/><path fill="#000" d="M58.03 7.96h-3.98c-1.1 0-1.99.9-1.99 2s.89 1.99 1.99 1.99h3.98c1.1 0 2-.89 2-1.99s-.9-2-2-2m-12.08 0h-3.99c-1.1 0-1.99.9-1.99 2s.89 1.99 1.99 1.99h3.99c1.1 0 1.99-.89 1.99-1.99s-.89-2-1.99-2M34 7.96h-3.99c-1.1 0-1.99.9-1.99 2s.89 1.99 1.99 1.99H34c1.1 0 1.99-.89 1.99-1.99s-.89-2-1.99-2m3.98 16.07H9.96c-1.1 0-2 .9-2 2V34c0 1.1.9 1.99 2 1.99h28.02c1.1 0 1.99-.89 1.99-1.99v-7.97c0-1.1-.89-2-1.99-2M35.99 32H11.95v-3.98h24.04zm22.04-7.97H45.95c-1.1 0-1.99.9-1.99 2v32c0 1.1.89 2 1.99 2h12.08c1.1 0 2-.9 2-2v-32c0-1.1-.9-2-2-2m-1.99 32.01h-8.1V28.02h8.1zM37.98 39.97H9.96c-1.1 0-2 .89-2 1.99v16.07c0 1.1.9 2 2 2h28.02c1.1 0 1.99-.9 1.99-2V41.96c0-1.1-.89-1.99-1.99-1.99m-1.99 16.07H11.95V43.96h24.04z"/></g></svg>